<svg width="13" height="13" viewBox="0 0 13 13" fill="none" xmlns="http://www.w3.org/2000/svg">
<mask id="mask0_222_1415" style="mask-type:luminance" maskUnits="userSpaceOnUse" x="0" y="0" width="13" height="13">
<path d="M11.5 0.5H1.5C0.947715 0.5 0.5 0.947715 0.5 1.5V11.5C0.5 12.0523 0.947715 12.5 1.5 12.5H11.5C12.0523 12.5 12.5 12.0523 12.5 11.5V1.5C12.5 0.947715 12.0523 0.5 11.5 0.5Z" fill="white" stroke="white" stroke-linecap="round" stroke-linejoin="round"/>
<path d="M5.50004 4.16667H2.83337V8.83334H5.33337M2.83337 6.5H5.33337M7.16671 4.83334V8.83334V6.66667C7.16671 6.26885 7.32474 5.88732 7.60605 5.60601C7.88735 5.32471 8.26888 5.16667 8.66671 5.16667C9.06453 5.16667 9.44606 5.32471 9.72737 5.60601C10.0087 5.88732 10.1667 6.26885 10.1667 6.66667V8.83334" stroke="black" stroke-linecap="round" stroke-linejoin="round"/>
</mask>
<g mask="url(#mask0_222_1415)">
<path d="M-1.5 -1.5H14.5V14.5H-1.5V-1.5Z" fill="url(#paint0_linear_222_1415)"/>
</g>
<defs>
<linearGradient id="paint0_linear_222_1415" x1="-1.92683" y1="5.8179" x2="20.4654" y2="3.69937" gradientUnits="userSpaceOnUse">
<stop stop-color="#4DC274"/>
<stop offset="1" stop-color="#BEE8CC"/>
</linearGradient>
</defs>
</svg>
